
<svg width="512" height="512" viewBox="0 0 512 512" fill="none" xmlns="http://www.w3.org/2000/svg">
  <path fill-rule="evenodd" clip-rule="evenodd" d="M256 32C167.634 32 96 103.634 96 192C96 268.8 160 364.8 256 480C352 364.8 416 268.8 416 192C416 103.634 344.366 32 256 32ZM256 288C202.981 288 160 245.019 160 192C160 138.981 202.981 96 256 96C309.019 96 352 138.981 352 192C352 245.019 309.019 288 256 288Z" fill="#F27D26"/>
  <path d="M256 128C247.163 128 240 135.163 240 144V208C240 216.837 247.163 224 256 224C264.837 224 272 216.837 272 208V144C272 135.163 264.837 128 256 128Z" fill="white"/>
  <path d="M224 128C215.163 128 208 135.163 208 144V200C208 208.837 215.163 216 224 216C232.837 216 240 208.837 240 200V144C240 135.163 232.837 128 224 128Z" fill="white"/>
  <path d="M288 128C279.163 128 272 135.163 272 144V200C272 208.837 279.163 216 288 216C296.837 216 304 208.837 304 200V144C304 135.163 296.837 128 288 128Z" fill="white"/>
  <path d="M256 224C247.163 224 240 231.163 240 240V384C240 392.837 247.163 400 256 400C264.837 400 272 392.837 272 384V240C272 231.163 264.837 224 256 224Z" fill="white"/>
  <path d="M256 416C185.308 416 128 426.745 128 440C128 453.255 185.308 464 256 464C326.692 464 384 453.255 384 440C384 426.745 326.692 416 256 416ZM256 454C202.981 454 160 447.732 160 440C160 432.268 202.981 426 256 426C309.019 426 352 432.268 352 440C352 447.732 309.019 454 256 454Z" fill="#F27D26"/>
</svg>
