<?xml version="1.0" encoding="UTF-8"?>
<!DOCTYPE svg PUBLIC "-//W3C//DTD SVG 1.1//EN" "http://www.w3.org/Graphics/SVG/1.1/DTD/svg11.dtd">
<svg xmlns="http://www.w3.org/2000/svg" version="1.1" width="1024px" height="1024px" style="shape-rendering:geometricPrecision; text-rendering:geometricPrecision; image-rendering:optimizeQuality; fill-rule:evenodd; clip-rule:evenodd" xmlns:xlink="http://www.w3.org/1999/xlink">
<g><path style="opacity:1" fill="#f9f9f9" d="M -0.5,-0.5 C 340.833,-0.5 682.167,-0.5 1023.5,-0.5C 1023.5,340.833 1023.5,682.167 1023.5,1023.5C 682.167,1023.5 340.833,1023.5 -0.5,1023.5C -0.5,682.167 -0.5,340.833 -0.5,-0.5 Z"/></g>
<g><path style="opacity:1" fill="#e76420" d="M 493.5,156.5 C 573.324,153.479 640.157,181.146 694,239.5C 749.509,306.748 765.176,382.415 741,466.5C 728.562,501.374 712.896,534.707 694,566.5C 654.947,629.39 611.447,689.057 563.5,745.5C 560.634,687.173 557.967,628.84 555.5,570.5C 623.987,551.514 668.153,507.847 688,439.5C 703.296,368.729 684.463,308.896 631.5,260C 579.161,217.798 520.494,205.798 455.5,224C 393.011,246.491 352.511,289.657 334,353.5C 321.584,414.842 335.584,469.175 376,516.5C 400.522,543.187 430.355,561.354 465.5,571C 466.624,571.839 467.291,573.006 467.5,574.5C 464.557,631.806 462.057,689.14 460,746.5C 410.301,688.469 365.634,626.803 326,561.5C 306.262,528.355 290.596,493.355 279,456.5C 256.424,358.566 282.924,276.732 358.5,211C 398.081,179.547 443.081,161.381 493.5,156.5 Z"/></g>
<g><path style="opacity:1" fill="#e76420" d="M 577.5,281.5 C 577.321,287.404 577.988,293.071 579.5,298.5C 582.695,330.473 585.861,362.473 589,394.5C 589.896,409.541 589.563,424.541 588,439.5C 581.972,467.861 565.472,487.361 538.5,498C 534.884,500.742 532.384,504.242 531,508.5C 533.487,590.516 536.654,672.516 540.5,754.5C 543.823,773.712 536.489,786.545 518.5,793C 500.471,795.908 488.638,788.741 483,771.5C 482.333,760.833 482.333,750.167 483,739.5C 486.784,662.182 489.784,584.849 492,507.5C 490.262,503.759 487.762,500.592 484.5,498C 452.266,484.734 435.099,460.568 433,425.5C 435.401,375.691 439.734,326.024 446,276.5C 450.098,269.495 455.931,267.662 463.5,271C 465.378,272.543 466.878,274.376 468,276.5C 468.333,321.167 468.667,365.833 469,410.5C 472.134,420.483 478.634,423.65 488.5,420C 491.728,418.437 493.895,415.937 495,412.5C 496.561,370.509 497.894,328.509 499,286.5C 498.917,271.636 505.751,266.803 519.5,272C 521.041,273.579 522.208,275.413 523,277.5C 524.5,322.497 526.167,367.497 528,412.5C 532.501,421.655 539.334,423.821 548.5,419C 551.467,416.9 553.3,414.066 554,410.5C 554.333,365.833 554.667,321.167 555,276.5C 558.04,270.397 562.874,268.231 569.5,270C 575.144,271.804 577.811,275.638 577.5,281.5 Z"/></g>
<g><path style="opacity:1" fill="#ee8d58" d="M 577.5,281.5 C 578.737,286.96 579.404,292.627 579.5,298.5C 577.988,293.071 577.321,287.404 577.5,281.5 Z"/></g>
<g><path style="opacity:1" fill="#e76620" d="M 406.5,722.5 C 409.044,722.104 411.211,722.771 413,724.5C 418.167,731.5 423.333,738.5 428.5,745.5C 396.861,749.461 365.861,756.294 335.5,766C 320.71,770.306 307.877,777.806 297,788.5C 296.362,789.609 295.862,790.775 295.5,792C 302.02,800.496 310.354,806.829 320.5,811C 353.063,823.557 386.729,831.557 421.5,835C 492.72,842.363 563.72,840.697 634.5,830C 657.856,826.064 680.522,819.73 702.5,811C 711.684,807.333 719.518,801.833 726,794.5C 726.706,792.029 726.373,789.695 725,787.5C 717.777,780.132 709.277,774.632 699.5,771C 665.192,758.342 629.859,750.009 593.5,746C 599.831,737.808 606.498,729.974 613.5,722.5C 642.048,726.643 670.048,733.143 697.5,742C 711.501,746.833 724.501,753.5 736.5,762C 757.975,780.007 758.975,799.007 739.5,819C 721.103,832.362 700.769,841.696 678.5,847C 636.81,857.503 594.476,863.503 551.5,865C 482.261,869.496 413.928,863.83 346.5,848C 324.029,842.427 303.362,833.093 284.5,820C 263.587,799.274 264.587,779.607 287.5,761C 305.793,749.356 325.46,740.69 346.5,735C 366.381,729.636 386.381,725.469 406.5,722.5 Z"/></g>
</svg>
